<?xml version="1.0" standalone="no"?>
<!DOCTYPE svg PUBLIC "-//W3C//DTD SVG 20010904//EN"
 "http://www.w3.org/TR/2001/REC-SVG-20010904/DTD/svg10.dtd">
<svg version="1.0" xmlns="http://www.w3.org/2000/svg"
 width="208.000000pt" height="214.000000pt" viewBox="0 0 208.000000 214.000000"
 preserveAspectRatio="xMidYMid meet">

<g transform="translate(0.000000,214.000000) scale(0.100000,-0.100000)"
fill="#000000" stroke="none">
<path d="M182 2130 c-18 -4 -40 -16 -48 -26 -9 -11 -13 -13 -9 -6 3 6 3 12 -2
12 -17 -1 -62 -47 -84 -85 -22 -39 -22 -44 -20 -343 1 -176 -2 -302 -7 -298
-5 3 -9 -1 -9 -9 0 -8 4 -12 9 -9 4 3 8 -43 7 -103 0 -70 -3 -101 -9 -88 -7
16 -9 14 -9 -15 -1 -26 2 -31 9 -20 7 11 10 -2 10 -43 0 -44 -3 -56 -12 -51
-10 6 -10 4 -1 -7 18 -18 18 -83 1 -73 -10 6 -9 3 0 -8 11 -13 13 -97 12 -405
-2 -368 1 -430 20 -418 5 3 12 0 16 -6 4 -8 3 -9 -4 -5 -23 14 -12 -10 16 -37
16 -15 32 -24 37 -20 4 5 5 2 1 -5 -5 -8 8 -20 41 -35 l48 -22 840 0 c689 0
847 2 879 14 43 15 129 88 120 102 -3 5 -1 9 4 9 16 0 34 57 27 81 -5 14 -4
19 4 15 13 -8 14 1668 1 1719 -7 28 -8 29 -10 5 l-2 -25 -7 25 c-4 15 -3 28 3
32 7 5 7 8 -2 8 -7 0 -10 5 -7 10 3 6 1 10 -5 10 -6 0 -9 4 -5 9 8 15 -56 83
-72 77 -8 -3 -12 -2 -8 3 6 11 -60 35 -74 27 -5 -4 -12 -2 -16 4 -7 12 -1632
12 -1683 0z m943 -210 l329 0 151 -151 c82 -83 162 -167 178 -186 l27 -36 0
-200 c0 -220 -4 -237 -60 -237 -52 0 -59 21 -62 185 l-3 150 -150 5 c-82 3
-147 7 -142 8 4 1 -2 11 -13 22 -18 18 -20 33 -20 170 l0 150 -472 -3 -473 -2
-3 -738 c-1 -405 -1 -738 0 -739 2 -1 158 -5 348 -8 l344 -5 13 -24 c12 -25 3
-57 -21 -73 -6 -4 -169 -8 -363 -8 l-352 0 -34 30 c-19 16 -37 27 -40 24 -3
-3 -8 0 -13 7 -5 8 -3 10 6 4 10 -6 12 -4 7 9 -4 10 -7 263 -7 562 0 361 -3
543 -10 539 -5 -3 -10 -1 -10 4 0 6 5 11 10 11 6 0 10 57 10 150 0 83 -4 150
-9 150 -5 0 -11 17 -13 39 -2 23 1 37 7 35 5 -2 11 14 13 37 3 51 26 96 52
104 11 4 18 9 16 13 -2 4 93 6 212 5 120 -2 365 -3 547 -3z m942 -22 c-3 -8
-6 -5 -6 6 -1 11 2 17 5 13 3 -3 4 -12 1 -19z m0 -120 c-2 -18 -4 -6 -4 27 0
33 2 48 4 33 2 -15 2 -42 0 -60z m0 -155 c-3 -10 -5 -2 -5 17 0 19 2 27 5 18
2 -10 2 -26 0 -35z m-920 -27 c-1 -6 5 -10 13 -8 8 2 12 1 8 -3 -4 -4 2 -16
12 -27 37 -40 50 -84 50 -164 0 -59 -5 -88 -21 -122 -32 -64 -75 -81 -206 -82
l-103 0 0 -43 0 -43 91 0 c83 0 93 -2 110 -23 38 -47 -2 -71 -119 -71 l-77 0
-3 -42 c-1 -23 -4 -44 -6 -45 -8 -8 -92 -12 -104 -5 -16 10 -34 72 -21 72 5 0
9 5 9 11 0 8 -15 10 -45 7 -24 -3 -42 -2 -39 3 3 5 -2 9 -10 9 -20 0 -39 36
-31 59 6 19 49 36 65 26 5 -3 21 -3 35 1 21 5 25 12 25 45 l0 39 -53 0 c-56 0
-77 12 -77 44 0 36 29 56 82 56 46 0 48 1 47 28 l-1 27 -8 -25 -8 -25 -1 28
c-1 15 4 27 9 27 6 0 10 7 10 16 0 8 -4 13 -9 10 -10 -7 -9 19 1 29 3 4 2 22
-4 42 -5 19 -6 42 -2 51 4 10 9 33 11 52 2 19 4 41 5 47 1 9 47 12 184 12 130
-1 183 -5 181 -13z m920 -213 c-1 -43 -3 -10 -3 72 0 83 2 118 3 78 2 -40 2
-107 0 -150z m0 -160 c-2 -16 -4 -5 -4 22 0 28 2 40 4 28 2 -13 2 -35 0 -50z
m-1780 -35 c-3 -8 -6 -5 -6 6 -1 11 2 17 5 13 3 -3 4 -12 1 -19z m1780 -50
c-2 -13 -4 -5 -4 17 -1 22 1 32 4 23 2 -10 2 -28 0 -40z m0 -130 c-3 -7 -5 -2
-5 12 0 14 2 19 5 13 2 -7 2 -19 0 -25z m-377 -11 c14 -1 31 -8 38 -14 7 -7
20 -13 27 -13 8 0 43 -22 78 -49 36 -28 68 -47 73 -43 4 4 4 2 0 -5 -6 -12 35
-81 57 -95 7 -4 9 -8 5 -8 -4 0 -2 -13 3 -30 6 -16 14 -28 17 -26 4 2 8 -21 9
-52 2 -32 7 -72 12 -89 7 -23 6 -33 -1 -33 -7 0 -9 -15 -5 -41 3 -22 3 -38 0
-35 -4 3 -15 -17 -25 -46 -10 -28 -30 -70 -45 -92 -16 -23 -28 -48 -28 -56 0
-8 -6 -15 -13 -15 -6 0 -28 -13 -47 -28 -147 -117 -381 -117 -535 1 -19 15
-39 27 -45 27 -5 0 -11 6 -11 13 -3 23 -5 27 -30 57 -15 17 -23 24 -20 18 4
-7 2 -13 -4 -13 -7 0 -10 6 -7 13 3 7 -6 44 -19 83 -70 205 25 446 210 536 25
12 43 25 40 29 -2 4 4 5 13 3 10 -2 32 0 48 6 25 8 99 7 205 -3z m377 -109
c-2 -13 -4 -5 -4 17 -1 22 1 32 4 23 2 -10 2 -28 0 -40z m-1780 -60 c-3 -8 -6
-5 -6 6 -1 11 2 17 5 13 3 -3 4 -12 1 -19z m1780 -45 c-3 -10 -5 -2 -5 17 0
19 2 27 5 18 2 -10 2 -26 0 -35z m-1039 0 c16 -23 15 -43 -5 -65 -15 -16 -35
-18 -215 -18 l-198 0 -12 25 c-8 18 -8 31 0 49 13 30 36 32 262 28 130 -3 157
-6 168 -19z m1039 -195 c-2 -13 -4 -3 -4 22 0 25 2 35 4 23 2 -13 2 -33 0 -45z
m-1040 -29 c17 -15 17 -54 -2 -69 -20 -17 -375 -22 -407 -6 -26 13 -36 57 -16
74 18 15 67 17 252 14 97 -1 165 -7 173 -13z m1040 -31 c-3 -8 -6 -5 -6 6 -1
11 2 17 5 13 3 -3 4 -12 1 -19z m0 -160 c-2 -13 -4 -5 -4 17 -1 22 1 32 4 23
2 -10 2 -28 0 -40z m-1780 -40 c-3 -8 -6 -5 -6 6 -1 11 2 17 5 13 3 -3 4 -12
1 -19z m1780 -65 c-2 -16 -4 -3 -4 27 0 30 2 43 4 28 2 -16 2 -40 0 -55z
m-1460 61 c-3 -3 -12 -4 -19 -1 -8 3 -5 6 6 6 11 1 17 -2 13 -5z m96 -1 c-7
-2 -19 -2 -25 0 -7 3 -2 5 12 5 14 0 19 -2 13 -5z"/>
<path d="M1471 1655 c-1 -55 2 -75 11 -75 9 0 8 -3 -2 -10 -10 -7 13 -10 74
-10 83 0 88 1 75 18 -22 27 -43 41 -54 35 -5 -4 -7 -3 -3 1 10 11 -62 87 -75
79 -6 -3 -7 -1 -4 4 4 6 1 16 -7 22 -11 9 -14 -2 -15 -64z"/>
<path d="M901 1402 l2 -112 82 0 c109 0 118 7 116 95 -1 50 -6 74 -18 88 -13
15 -14 18 -3 12 11 -6 12 -5 4 4 -6 6 -50 15 -98 18 l-87 6 2 -111z m72 91
c-7 -2 -19 -2 -25 0 -7 3 -2 5 12 5 14 0 19 -2 13 -5z"/>
<path d="M1534 889 c-75 -7 -136 -40 -192 -104 -38 -43 -70 -105 -54 -105 4 0
1 -4 -7 -9 -16 -10 -28 -140 -16 -168 8 -18 11 -28 13 -51 1 -7 6 -10 12 -7 6
3 7 -1 4 -10 -8 -21 51 -97 101 -130 93 -61 205 -69 305 -23 115 52 176 139
187 265 7 88 -13 161 -64 227 -68 87 -168 127 -289 115z m210 -211 c29 -41 20
-75 -29 -120 -24 -22 -43 -45 -42 -50 1 -6 -6 -12 -16 -13 -10 -2 -27 -15 -38
-28 -26 -34 -81 -67 -111 -67 -57 0 -138 85 -138 145 0 32 30 75 53 75 7 0 30
-20 52 -46 l40 -46 76 81 c41 45 74 82 73 84 -2 2 12 4 31 5 25 2 37 -3 49
-20z m133 -85 c-3 -10 -5 -4 -5 12 0 17 2 24 5 18 2 -7 2 -21 0 -30z"/>
<path d="M1 1864 c0 -11 3 -14 6 -6 3 7 2 16 -1 19 -3 4 -6 -2 -5 -13z"/>
<path d="M3 1745 c0 -33 2 -45 4 -27 2 18 2 45 0 60 -2 15 -4 0 -4 -33z"/>
<path d="M1 1544 c0 -11 3 -14 6 -6 3 7 2 16 -1 19 -3 4 -6 -2 -5 -13z"/>
<path d="M3 705 c0 -44 2 -61 4 -37 2 23 2 59 0 80 -2 20 -4 1 -4 -43z"/>
<path d="M2 595 c0 -16 2 -22 5 -12 2 9 2 23 0 30 -3 6 -5 -1 -5 -18z"/>
</g>
</svg>
