<svg xmlns="http://www.w3.org/2000/svg" viewBox="0 0 200 200">
  <!-- Blue rounded square background -->
  <rect width="200" height="200" rx="32" fill="#3B82F6"/>

  <!-- White inner rounded frame for border effect -->
  <rect x="16" y="16" width="168" height="168" rx="20" fill="white"/>

  <!-- Blue inner background -->
  <rect x="24" y="24" width="152" height="152" rx="16" fill="#3B82F6"/>

  <!-- Document icon -->
  <g transform="translate(55, 45)">
    <!-- Document body -->
    <path d="M 0 0 L 70 0 L 70 10 L 80 20 L 80 100 L 0 100 Z" fill="white"/>

    <!-- Folded corner -->
    <path d="M 70 0 L 70 10 L 80 20 L 70 10 Z" fill="#E0E0E0"/>

    <!-- Ruble symbol (₽) -->
    <g transform="translate(20, 30)">
      <!-- Vertical line of ruble -->
      <rect x="4" y="0" width="6" height="35" fill="#3B82F6"/>

      <!-- Top curve of P -->
      <path d="M 10 0 L 28 0 Q 38 0 38 10 Q 38 20 28 20 L 10 20 Z" fill="#3B82F6"/>

      <!-- Horizontal line 1 -->
      <rect x="0" y="22" width="32" height="3" fill="#3B82F6"/>

      <!-- Horizontal line 2 -->
      <rect x="0" y="28" width="32" height="3" fill="#3B82F6"/>
    </g>

    <!-- Three horizontal lines below ruble -->
    <rect x="10" y="72" width="60" height="3" rx="1.5" fill="white"/>
    <rect x="10" y="80" width="50" height="3" rx="1.5" fill="white"/>
    <rect x="10" y="88" width="55" height="3" rx="1.5" fill="white"/>
  </g>

  <!-- Blue circle with checkmark badge (bottom right) -->
  <g transform="translate(125, 125)">
    <!-- White border circle -->
    <circle cx="0" cy="0" r="28" fill="white"/>

    <!-- Blue circle background -->
    <circle cx="0" cy="0" r="24" fill="#3B82F6"/>

    <!-- White checkmark -->
    <path d="M -8 0 L -3 8 L 10 -8" stroke="white" stroke-width="5" stroke-linecap="round" stroke-linejoin="round" fill="none"/>
  </g>
</svg>
